<svg width="200" height="200" viewBox="0 0 200 200" fill="none" xmlns="http://www.w3.org/2000/svg">
<path d="M164.407 99.9631V194.138C164.407 197.421 161.828 200 158.545 200H41.3147C38.0318 200 35.4531 197.421 35.4531 194.138V109.107C35.4531 106.997 36.625 105.121 38.3839 104.066L54.2097 94.9222C55.1479 94.3356 56.203 94.1016 57.1404 94.1016H82.3454L99.9301 109.107L117.515 94.1016H158.545C161.828 94.1016 164.407 96.6802 164.407 99.9631Z" fill="#E63950"/>
<path d="M164.407 99.9631V194.138C164.407 197.421 161.828 200 158.545 200H99.9297V109.107L117.514 94.1016H158.545C161.828 94.1016 164.407 96.6802 164.407 99.9631Z" fill="#D0004F"/>
<path d="M103.919 11.7275C102.864 9.8514 101.457 8.09333 99.9328 6.80301C97.1192 3.87224 93.6027 1.87971 89.7337 0.825025C83.6373 -0.816206 77.3072 0.00440902 71.9142 3.16925C64.4115 7.50757 59.9571 15.5957 60.1911 24.2712C60.3084 25.4435 60.8945 42.8718 60.8945 42.8718C59.605 42.1684 46.2407 33.8446 46.2407 33.8446C44.7167 33.1413 34.1663 25.1696 21.1537 32.7892C15.7607 35.9548 11.8921 40.9953 10.2504 46.9745C8.6096 53.0709 9.43061 59.401 12.5951 64.794C19.0428 76.0477 33.4625 79.7991 44.5994 73.3514L59.691 64.638L38.6668 63.2364C36.9079 64.2429 34.917 64.7736 32.8904 64.7764C28.7002 64.7764 24.8195 62.5498 22.7644 58.9606C21.1275 56.1728 20.7379 53.1162 21.5679 50.0252C22.3866 47.0542 24.3498 44.5072 27.086 42.9042C28.998 41.7823 30.8182 41.2384 32.6443 41.2384C35.6782 41.2384 38.1908 42.721 39.5363 43.5166L40.2803 43.9402C42.1177 45.0851 54.0354 52.4804 55.2718 53.1561L55.7125 53.3964L55.6129 53.4538L55.7751 53.4609L69.8428 61.667L72.5781 43.6916L72.6457 43.4787L72.6106 42.4693C72.6106 42.4693 71.9752 24.2974 71.8494 23.0723C71.7864 19.5577 74.0416 15.482 77.7797 13.3183C79.6057 12.248 81.5291 11.7212 83.5552 11.7212C84.597 11.7212 85.6501 11.8643 86.6919 12.1448C88.5751 12.6599 90.2065 13.5989 91.4773 14.9267L92.3589 15.7567C92.691 16.0314 93.2346 16.6441 93.6926 17.4624C96.4975 22.2021 95.6331 28.4907 91.7751 32.2229C91.1397 32.8009 90.3038 33.4308 89.5426 33.8657L88.96 34.2022L87.3942 48.6423L95.3596 44.0433C97.0008 43.1055 98.5252 41.9332 99.9316 40.644C107.436 33.3761 109.546 21.2232 103.919 11.7275ZM82.3481 94.1017V158.969C82.3481 161.314 83.7549 163.424 85.9823 164.362C88.0925 165.3 90.6719 164.831 92.3124 163.072L99.9328 155.569L107.553 163.072C109.194 164.831 111.773 165.299 113.883 164.362C116.111 163.424 117.517 161.314 117.517 158.969V94.1017H82.3481Z" fill="#FED843"/>
<path d="M194.105 70.6557H188.243V64.7942C188.243 61.5543 185.621 58.9326 182.381 58.9326C179.142 58.9326 176.52 61.5543 176.52 64.7942V70.6557H170.658C167.419 70.6557 164.797 73.2774 164.797 76.5172C164.797 79.7571 167.419 82.3788 170.658 82.3788H176.52V88.2403C176.52 91.4802 179.142 94.1019 182.381 94.1019C185.621 94.1019 188.243 91.4802 188.243 88.2403V82.3788H194.105C197.344 82.3788 199.966 79.7571 199.966 76.5172C199.966 73.2774 197.344 70.6557 194.105 70.6557Z" fill="#FFB64C"/>
<path d="M175.862 24.7231C179.099 24.7231 181.723 22.0988 181.723 18.8615C181.723 15.6243 179.099 13 175.862 13C172.624 13 170 15.6243 170 18.8615C170 22.0988 172.624 24.7231 175.862 24.7231Z" fill="#FFB64C"/>
<path d="M146.822 82.3784C150.06 82.3784 152.684 79.7541 152.684 76.5168C152.684 73.2796 150.06 70.6553 146.822 70.6553C143.585 70.6553 140.961 73.2796 140.961 76.5168C140.961 79.7541 143.585 82.3784 146.822 82.3784Z" fill="#FFB64C"/>
<path d="M99.9297 94.1015H117.514V158.969C117.514 161.314 116.108 163.424 113.88 164.361C111.77 165.3 109.191 164.831 107.55 163.072L99.9297 155.569V94.1015ZM99.9297 40.6442V6.80322C101.454 8.09315 102.86 9.85122 103.916 11.7273C109.543 21.223 107.432 33.3763 99.9297 40.6442Z" fill="#FFB64C"/>
<path d="M150.693 46.0364L133.108 15.5564C131.467 12.7429 127.833 11.805 125.019 13.4463L99.9317 27.9829L96.573 29.9203L29.916 68.3802L3.21628 83.7851C0.402742 85.3091 -0.925874 88.9433 0.715357 91.7568L18.6907 122.237C20.332 125.051 23.8489 125.988 26.6624 124.347L99.9317 82.0266L148.465 54.0081C151.279 52.3677 152.217 48.8507 150.693 46.0364Z" fill="#FF641A"/>
<path d="M148.463 54.0081L99.9297 82.0263V27.9829L125.017 13.4463C127.831 11.805 131.465 12.7429 133.106 15.5564L150.691 46.036C152.215 48.8507 151.277 52.3673 148.463 54.0081Z" fill="#E63950"/>
</svg>
