<svg width="230" height="52" viewBox="0 0 230 52" fill="none" xmlns="http://www.w3.org/2000/svg">
<mask id="mask0_2001_2608" style="mask-type:luminance" maskUnits="userSpaceOnUse" x="0" y="0" width="230" height="52">
<path d="M229.938 0H0V52H229.938V0Z" fill="white"/>
</mask>
<g mask="url(#mask0_2001_2608)">
<path d="M72.9808 12.4296C74.3162 12.4345 75.6516 12.4309 76.987 12.4189C76.7923 17.2982 77.0552 22.5297 77.023 27.4278C77.0128 28.9879 77.7026 29.8209 79.4402 29.7324C81.2892 29.6382 84.2066 30.1548 85.8539 29.2074C86.6324 28.5879 86.4321 23.4863 86.4315 22.5014C86.407 19.1461 86.4149 15.7906 86.4551 12.4355L90.4875 12.429L90.4805 16.1166L90.4839 27.0256C90.4707 28.4058 90.4144 31.6514 89.2643 32.4908C87.0696 34.0927 81.2071 33.2451 78.3757 33.4468C77.3377 33.4467 74.8243 33.2782 74.0984 32.4643C72.8826 30.9922 72.9237 28.4593 72.9479 26.6579C73.0117 21.9325 72.836 17.1429 72.9808 12.4296Z" fill="#FEFEFE"/>
<path d="M209.156 12.4751C210.397 12.483 211.637 12.4772 212.878 12.4575L212.885 22.4601C215.47 19.1715 218.322 15.5799 221.082 12.4688C222.535 12.4866 224.013 12.4712 225.468 12.4702C223.305 15.3227 220.595 18.4687 218.209 21.159C219.975 23.6965 221.681 26.2749 223.326 28.8924C224.179 30.382 225.435 31.9631 226.185 33.4685L221.79 33.471C219.654 30.3556 217.739 27.3562 215.658 24.2245C215.094 24.9855 213.568 26.5754 212.885 27.2268L212.888 33.4689L209.162 33.4787C208.979 30.7372 209.089 26.5314 209.097 23.6634C209.104 20.2021 208.975 15.866 209.156 12.4751Z" fill="#FEFEFE"/>
<path d="M138.447 12.5182L148.424 12.439L147.418 15.6034C144.18 15.5939 140.713 15.4013 137.507 15.8828C135.86 16.1303 136.445 18.9831 136.434 20.1709C136.432 20.4423 136.918 20.712 137.181 20.7675C140.409 21.4503 144.713 20.2588 147.669 21.816C148.428 22.9874 148.476 24.1339 148.478 25.4995C148.49 31.7686 149.173 33.2621 142.276 33.3487C139.308 33.5174 135.521 33.4221 132.492 33.4353C132.447 32.4392 132.474 31.352 132.481 30.3483C134.231 30.4801 136.224 30.4358 138.086 30.4145C139.284 30.401 143.588 30.6614 144.362 29.6437C144.758 29.1216 144.995 24.7738 143.964 24.4982C140.792 23.6488 136.023 25.1328 133.176 23.1587C132.755 22.359 132.553 21.4432 132.571 20.5108C132.609 18.6293 132.167 15.0155 133.452 13.5454C134.337 12.532 137.193 12.5665 138.447 12.5182Z" fill="#FEFEFE"/>
<path d="M194.026 12.5298C195.11 12.394 197.102 12.4331 198.225 12.4338C200.7 12.4537 203.176 12.4444 205.652 12.4058C205.229 13.3554 204.73 14.8323 204.356 15.8426C201.757 15.8348 196.917 15.6476 194.578 16.2665C192.21 16.8931 193.012 27.4637 193.781 29.2524C195.455 30.3728 198.467 30.0875 200.571 30.086L204.81 30.0839L204.793 33.4432C202.021 33.4676 194.33 33.6159 192.064 33.045C191.556 32.9202 191.082 32.6828 190.677 32.3503C188.559 30.6348 189.216 21.7558 189.239 18.9181C189.274 14.8471 189.765 12.9251 194.026 12.5298Z" fill="#FEFEFE"/>
<path d="M177.394 12.416C178.017 12.7087 184.662 27.7852 185.499 29.2915C185.89 29.992 187.079 32.4681 187.445 33.3289C186.238 33.4288 184.637 33.3793 183.41 33.3685C183.205 33.021 182.976 32.5633 182.805 32.1945C181.116 28.5699 179.293 24.9996 177.557 21.401L177.419 21.3781C177.115 21.9252 176.855 22.5039 176.588 23.0702C174.947 26.5429 173.366 29.9884 171.545 33.3719C170.288 33.406 168.862 33.3678 167.594 33.3627C167.94 32.5095 168.366 31.635 168.758 30.7978C171.627 24.6675 174.529 18.5471 177.394 12.416Z" fill="#FEFEFE"/>
<path d="M150.607 12.46C152.826 12.5319 155.296 12.4779 157.545 12.4788L170.38 12.4681C169.938 13.5868 169.504 14.7089 169.079 15.8342C167.001 15.8854 164.679 15.8404 162.584 15.8401L162.577 25.6631L162.575 33.4753L158.444 33.4709C158.25 27.992 158.413 21.4145 158.434 15.8411L151.887 15.8462C151.449 14.7773 151.018 13.551 150.607 12.46Z" fill="#FEFEFE"/>
<path d="M94.9846 12.4468C96.115 12.3796 97.851 12.4301 99.0286 12.4258C98.948 18.2788 99.0234 24.3115 99.0227 30.1794C102.937 30.1415 106.873 30.2404 110.787 30.1495C110.807 31.2366 110.792 32.3777 110.793 33.4693C105.703 33.5884 100.131 33.4707 94.9928 33.4781C94.9048 30.3548 94.9567 27.0217 94.9558 23.8847C94.9376 20.072 94.9472 16.2593 94.9846 12.4468Z" fill="#FEFEFE"/>
<path d="M113.785 12.4058C114.63 12.4897 116.759 12.4294 117.696 12.428C117.568 18.1898 117.684 24.384 117.684 30.18C121.413 30.0292 125.878 30.4022 129.559 30.1212L129.574 33.4818C124.342 33.4164 118.995 33.4719 113.753 33.4723C113.606 28.3856 113.831 23.182 113.733 18.0839C113.699 16.3205 113.639 14.1209 113.785 12.4058Z" fill="#FEFEFE"/>
<path d="M54.7332 21.0635C58.9855 21.1828 63.672 21.0922 67.9592 21.0893L66.7219 24.2585C64.1476 24.3156 61.3915 24.2698 58.8023 24.2736C58.7831 27.1779 58.8962 30.5513 58.7694 33.4091C57.4716 33.4548 56.059 33.4309 54.7511 33.4313C54.6442 31.815 54.697 29.7828 54.694 28.1386C54.6897 25.8119 54.6618 23.3828 54.7332 21.0635Z" fill="#FEFEFE"/>
<path d="M42.6654 20.2847C44.5579 22.2384 46.1093 24.1327 47.9178 26.032C46.3448 27.9452 44.4819 29.7767 42.9377 31.6133C42.4192 31.4365 38.3583 26.6162 37.7773 25.9157L42.6654 20.2847Z" fill="url(#paint0_linear_2001_2608)"/>
<path d="M204.113 49.1707C205.37 47.3904 207.967 45.4869 209.307 43.7042C209.546 43.3854 209.245 42.0405 210.325 41.8611C210.576 41.8194 210.832 41.9124 211.014 42.0577C211.26 42.2525 211.416 42.5371 211.45 42.8483C211.579 44.0437 210.378 43.7963 209.845 44.3061C208.05 46.0229 206.313 48.0553 204.516 49.7437C196.098 49.8353 187.48 49.7966 179.053 49.7628C177.914 48.6171 177.24 47.7255 175.983 46.626L160.153 46.6225C157.156 46.6223 153.958 46.6757 150.973 46.5882C149.78 46.7177 143.221 46.7185 142.2 46.5322C142.091 46.2827 142.118 46.3685 142.175 46.0599C142.196 46.0464 142.42 45.9113 142.42 45.9113C150.044 46.0222 157.695 45.821 165.317 45.9486C168.61 45.861 173.007 45.846 176.3 45.935C177.486 46.9487 178.546 48.2321 179.636 49.1753L204.113 49.1707Z" fill="url(#paint1_linear_2001_2608)"/>
<path d="M150.973 46.588C149.78 46.7175 143.221 46.7182 142.2 46.532C142.091 46.2825 142.118 46.3683 142.175 46.0597C142.196 46.0462 142.42 45.9111 142.42 45.9111C150.044 46.022 157.695 45.8208 165.317 45.9484C163.097 46.1287 143.486 46.2577 143.458 46.2733C143.851 46.593 150.661 46.2358 150.973 46.588Z" fill="url(#paint2_linear_2001_2608)"/>
<path d="M202.704 45.7106C203.226 45.061 204.325 43.9174 204.85 43.2718C205.083 42.9866 204.589 41.801 205.642 41.6919C205.98 41.6595 206.318 41.7614 206.582 41.9759C206.794 42.1495 206.926 42.4025 206.949 42.6763C207.025 43.5461 206.154 43.6983 205.519 43.8375C204.728 44.67 203.879 45.5972 203.068 46.3948L180.466 46.4015C179.28 45.3232 178.274 44.411 177.191 43.2382C172.551 43.2408 167.458 43.3437 162.854 43.2217C161.263 43.2991 159.173 43.2406 157.529 43.241L147.472 43.2411C145.974 43.2411 143.859 43.2382 142.292 43.2457C142.221 43.1863 142.159 43.1358 142.108 43.0938C142.076 42.7412 142.041 42.863 142.221 42.5887C142.347 42.5681 142.591 42.5258 142.71 42.5289C145.753 42.6048 148.827 42.481 151.865 42.5684C155.123 42.4377 159.077 42.5386 162.379 42.5433C167.395 42.5504 172.527 42.4708 177.529 42.5427C178.465 43.2937 179.832 44.7915 180.782 45.703L202.704 45.7106Z" fill="url(#paint3_linear_2001_2608)"/>
<path d="M162.854 43.2218C161.263 43.2992 159.173 43.2407 157.529 43.2411L147.472 43.2412C145.974 43.2412 143.859 43.2383 142.292 43.2458C142.221 43.1864 142.159 43.1359 142.108 43.0939C142.076 42.7413 142.041 42.8631 142.221 42.5888C142.347 42.5682 142.591 42.5259 142.71 42.529C145.753 42.6049 148.827 42.4811 151.865 42.5685C150.876 42.9689 147.993 42.6213 146.803 42.7555C147.027 42.9818 147.265 42.979 147.611 42.9808L157.003 43.1237C158.503 43.1396 161.458 43.0824 162.854 43.2218Z" fill="url(#paint4_linear_2001_2608)"/>
<path d="M54.7398 12.4449C56.302 12.3818 58.2526 12.4365 59.8388 12.4371L69.6308 12.4228C69.3258 13.1786 69.0347 13.9763 68.7432 14.7406C68.615 15.0641 68.44 15.4263 68.2942 15.7472L54.7475 15.7634C54.6752 14.6535 54.6939 13.5548 54.7398 12.4449Z" fill="#FEFEFE"/>
<path d="M116.501 39.3163C117.127 39.2565 118.1 39.2372 118.631 39.5355C121.679 41.2495 121.303 45.6676 118.081 46.9017C113.084 47.5282 112.418 40.6654 116.501 39.3163ZM117.485 46.5441C119.779 45.9886 120.398 44.2224 119.97 41.9754C119.687 40.4861 118.51 39.7491 117.033 39.6667C113.273 40.6039 113.535 46.3019 117.485 46.5441Z" fill="#FEFEFE"/>
<path d="M79.4538 39.3286C80.1086 39.2731 80.9399 39.1981 81.5192 39.508C84.6164 41.1646 84.2586 45.6053 81.0683 46.9115C76.0394 47.3846 75.3061 40.8672 79.4538 39.3286ZM80.3169 46.5539C84.3178 45.9272 83.7247 39.6651 80.1131 39.6645C76.2648 40.5225 76.448 46.0715 80.3169 46.5539Z" fill="#FEFEFE"/>
<path d="M142.63 39.2504C148.975 39.2287 155.321 39.2402 161.667 39.285C167.319 39.2865 173.224 39.1969 178.858 39.3131C179.841 40.0727 181.284 41.5775 182.195 42.4877C184.987 42.4844 187.731 42.559 190.528 42.5196C191.867 41.1222 193.623 42.1262 192.508 43.7129C192.442 43.7766 192.373 43.837 192.301 43.8941C191.52 44.4995 191.015 43.83 190.594 43.2343L181.846 43.2165C180.74 42.1211 179.616 40.9778 178.436 39.968L151.003 39.9058C148.285 39.875 145.535 39.8694 142.816 39.9198C142.59 39.924 142.32 39.8528 142.143 39.7192C142.065 39.6598 142.077 39.5882 142.055 39.4644C142.33 39.2191 142.217 39.2868 142.63 39.2504ZM191.884 43.5103C192.222 43.42 192.424 43.0742 192.337 42.7356C192.249 42.3969 191.906 42.192 191.566 42.2764C191.223 42.3619 191.015 42.7111 191.103 43.0539C191.191 43.3967 191.543 43.6017 191.884 43.5103Z" fill="url(#paint5_linear_2001_2608)"/>
<path d="M224.762 44.9243C225.087 45.001 225.433 45.0703 225.69 45.2952C225.923 45.4987 226.001 45.7609 226.015 46.0601C226.03 46.3527 225.95 46.6614 225.745 46.8781C225.512 47.1221 225.144 47.2466 224.813 47.2447C224.43 47.2424 224.263 46.9604 224.017 46.7211C223.515 46.2331 219.378 46.4717 218.452 46.4811C217.396 47.5443 216.199 48.8019 215.101 49.7932C213.63 49.8817 211.554 49.8235 210.039 49.8277C209.427 49.8584 208.767 49.9903 208.324 49.6341V49.2946C208.754 48.9057 213.849 49.159 214.773 49.1487C215.339 48.3514 217.358 46.5391 218.172 45.7787C219.856 45.7134 221.565 45.8274 223.25 45.7267C224.041 45.6794 224.006 45.2502 224.762 44.9243ZM225.219 46.6731C225.522 46.5157 225.645 46.1444 225.494 45.8371C225.344 45.5298 224.976 45.3991 224.665 45.5426C224.458 45.6384 224.319 45.8389 224.302 46.0666C224.284 46.2943 224.392 46.5135 224.582 46.6394C224.772 46.7653 225.016 46.7782 225.219 46.6731Z" fill="url(#paint6_linear_2001_2608)"/>
<path d="M96.6991 39.2681C96.7519 39.2923 96.9342 39.3865 96.955 39.4146C97.5836 40.2554 99.9452 45.891 100.065 46.7453L99.8937 46.8007C99.3821 46.536 98.8023 44.8073 98.5574 44.1946C98.057 44.2117 97.4834 44.2031 96.9772 44.2065L95.2163 44.2456C95.028 44.7214 94.3128 46.6621 93.86 46.811C93.8159 46.0062 96.1631 40.1374 96.6991 39.2681ZM97.0618 43.6795L98.4624 43.6727C97.7025 42.4949 97.3064 40.8042 96.8258 40.0644C96.3709 41.2772 95.8933 42.4814 95.3931 43.6764L97.0618 43.6795Z" fill="#FEFEFE"/>
<path d="M58.953 39.3574C59.7427 39.6238 63.1122 44.9447 63.9127 46.0206C63.7355 44.1086 63.7453 41.3329 64.0358 39.4531L64.1824 39.4311C64.6806 40.2432 64.5034 45.68 64.4685 46.9316C64.2858 46.8981 64.0122 46.8298 63.8964 46.6893C62.2828 44.7299 60.8 42.2456 59.2801 40.2024C59.3614 42.5422 59.445 45.1026 59.1602 47.4168C58.6393 45.8157 58.7482 41.0727 58.953 39.3574Z" fill="#FEFEFE" fill-opacity="0.988235"/>
<path d="M123.94 39.2456C125.076 39.8163 128.264 44.8423 129.114 46.1086C128.904 44.2988 128.874 40.5315 129.362 38.8081C129.699 40.2408 129.577 45.0458 129.571 46.7186C129.471 46.8429 129.477 46.809 129.288 46.8547C128.767 46.5082 125.096 41.1649 124.384 40.2164C124.441 41.5286 124.54 45.4021 124.196 46.4936L124.081 46.5455C123.818 45.7772 123.911 40.3555 123.94 39.2456Z" fill="#FEFEFE"/>
<path d="M68.0192 39.3334C68.9021 39.7408 72.3306 44.8864 73.1215 46.0275C73.0056 43.9416 72.9521 40.9296 73.3755 38.9243C73.663 40.4137 73.5927 45.1366 73.5835 46.8761C73.4371 46.863 73.2133 46.8162 73.1153 46.6972C71.4238 44.6427 70.0384 42.3384 68.4062 40.2319C68.5293 41.8035 68.5267 45.7602 68.3508 47.3148C67.682 45.3856 67.8922 41.4595 68.0192 39.3334Z" fill="#FEFEFE" fill-opacity="0.984314"/>
<path d="M134.416 39.3254C135.167 39.2678 136.528 39.1614 137.068 39.737L137.041 40.0222C136.799 40.0684 136.411 39.9615 136.184 39.8809C135.012 39.4649 133.867 39.6223 133.375 40.9249C132.875 42.2869 134.992 42.6137 135.875 42.9883C138.071 43.9198 137.886 45.9908 135.747 46.9046C134.96 46.9893 133.299 47.0972 132.911 46.3023C133.213 45.7732 136.025 47.5203 136.709 45.5182C137.831 42.241 131.611 44.0867 133.025 40.4612C133.286 39.7905 133.805 39.5903 134.416 39.3254Z" fill="#FEFEFE"/>
<path d="M91.8151 39.2583C92.0025 39.3674 91.946 39.3257 92.0295 39.5723C91.8214 40.5709 89.5552 46.4957 89.0995 47.3573C88.3935 45.9479 87.0338 41.7725 86.4501 40.122C86.3481 39.8575 86.2916 39.7554 86.3545 39.4729L86.5299 39.3984C86.9524 39.7208 88.7833 45.3187 89.0966 46.2638C89.7315 44.5825 90.8508 40.4687 91.8151 39.2583Z" fill="#FEFEFE"/>
<path d="M101.588 39.4736C102.598 39.3591 106.119 39.3403 107.111 39.503L107.186 39.6279C106.81 39.9501 105.214 39.8623 104.633 39.8625L104.636 44.5033C104.657 45.443 104.588 46.3826 104.429 47.3091C103.943 45.7839 104.1 41.6704 104.087 39.8687C103.567 39.8785 102.11 39.9542 101.68 39.7528L101.588 39.4736Z" fill="#FEFEFE" fill-opacity="0.988235"/>
<path d="M54.9834 39.3574C55.0723 39.4252 55.2138 39.5501 55.2101 39.6705C55.1747 40.8215 55.4913 46.1609 55.0551 46.8538C54.4896 45.528 54.6453 40.7935 54.9834 39.3574Z" fill="#FEFEFE" fill-opacity="0.980392"/>
<path d="M110.217 39.4736L110.368 39.6038C110.671 40.3324 110.606 46.0075 110.359 46.8769L110.211 46.7404C109.857 45.2603 110.011 41.0587 110.217 39.4736Z" fill="#FEFEFE" fill-opacity="0.980392"/>
<path d="M33.6162 10.1738C35.3637 11.9674 37.065 13.978 38.7767 15.8313C37.7349 17.0724 36.6253 18.2118 35.5489 19.4232L26.1652 29.9309C25.0524 31.1919 23.8547 32.4481 22.7232 33.6924C19.9817 36.7072 22.3723 38.5082 24.5481 40.7429C27.1142 37.7582 29.7356 34.8216 32.4108 31.9345C34.0837 33.5743 35.838 36.1405 37.5901 37.6004C35.5481 39.4518 33.5943 42.1956 31.6549 44.2068C29.2428 46.7081 26.9872 49.411 24.6639 52.0002H24.4076C22.8135 50.3328 21.2447 48.552 19.7274 46.7925C18.1835 44.9917 16.1258 43.077 15.0056 41.0056C13.5923 38.3921 13.5347 33.8134 15.0821 31.2417C16.3272 29.1723 18.9968 26.5133 20.6446 24.6423C24.9072 19.7648 29.2314 14.9416 33.6162 10.1738Z" fill="url(#paint7_linear_2001_2608)"/>
<path d="M8.06642 33.7121C6.25098 31.7896 5.199 29.2708 5.10779 26.6278C4.86509 21.074 7.80358 18.5067 11.2283 14.7616C12.7306 13.1187 14.2871 11.2531 15.8301 9.56494C17.5001 10.8081 19.4791 11.9297 20.7164 13.7094C20.974 14.0798 21.0781 14.6081 21.2692 14.953C18.764 18.2138 15.2738 21.3691 12.6462 24.6521C9.77423 28.2401 9.07028 29.1746 8.06642 33.7121Z" fill="url(#paint8_linear_2001_2608)"/>
<path d="M24.3987 0H24.5677C26.0921 1.66805 28.089 4.1008 29.5473 5.60477C29.1148 6.29639 27.9899 7.47745 27.3951 8.15768C26.0011 9.75148 24.5739 11.3951 23.0978 12.9128C22.5625 13.4633 21.7178 14.5437 21.2692 14.9531C21.0781 14.6082 20.974 14.0799 20.7165 13.7095C19.4791 11.9298 17.5002 10.8082 15.8301 9.56507C16.767 8.33284 18.2404 6.89914 19.2772 5.67971C20.9125 3.75644 22.5798 1.74502 24.3987 0Z" fill="url(#paint9_linear_2001_2608)"/>
</g>
<defs>
<linearGradient id="paint0_linear_2001_2608" x1="37.7773" y1="25.949" x2="47.9178" y2="25.949" gradientUnits="userSpaceOnUse">
<stop stop-color="#D4AF37"/>
<stop offset="1" stop-color="#FFDA63"/>
</linearGradient>
<linearGradient id="paint1_linear_2001_2608" x1="142.125" y1="45.8258" x2="211.46" y2="45.8258" gradientUnits="userSpaceOnUse">
<stop stop-color="#D4AF37"/>
<stop offset="1" stop-color="#FFDA63"/>
</linearGradient>
<linearGradient id="paint2_linear_2001_2608" x1="142.125" y1="46.2918" x2="165.317" y2="46.2918" gradientUnits="userSpaceOnUse">
<stop stop-color="#D4AF37"/>
<stop offset="1" stop-color="#FFDA63"/>
</linearGradient>
<linearGradient id="paint3_linear_2001_2608" x1="142.082" y1="44.0437" x2="206.954" y2="44.0437" gradientUnits="userSpaceOnUse">
<stop stop-color="#D4AF37"/>
<stop offset="1" stop-color="#FFDA63"/>
</linearGradient>
<linearGradient id="paint4_linear_2001_2608" x1="142.082" y1="42.8954" x2="162.854" y2="42.8954" gradientUnits="userSpaceOnUse">
<stop stop-color="#D4AF37"/>
<stop offset="1" stop-color="#FFDA63"/>
</linearGradient>
<linearGradient id="paint5_linear_2001_2608" x1="142.055" y1="41.6861" x2="192.862" y2="41.6861" gradientUnits="userSpaceOnUse">
<stop stop-color="#D4AF37"/>
<stop offset="1" stop-color="#FFDA63"/>
</linearGradient>
<linearGradient id="paint6_linear_2001_2608" x1="208.324" y1="47.4006" x2="226.017" y2="47.4006" gradientUnits="userSpaceOnUse">
<stop stop-color="#D4AF37"/>
<stop offset="1" stop-color="#FFDA63"/>
</linearGradient>
<linearGradient id="paint7_linear_2001_2608" x1="13.9336" y1="31.087" x2="38.7767" y2="31.087" gradientUnits="userSpaceOnUse">
<stop stop-color="#D4AF37"/>
<stop offset="1" stop-color="#FFDA63"/>
</linearGradient>
<linearGradient id="paint8_linear_2001_2608" x1="5.09375" y1="21.6385" x2="21.2692" y2="21.6385" gradientUnits="userSpaceOnUse">
<stop stop-color="#D4AF37"/>
<stop offset="1" stop-color="#FFDA63"/>
</linearGradient>
<linearGradient id="paint9_linear_2001_2608" x1="15.8301" y1="7.47654" x2="29.5473" y2="7.47654" gradientUnits="userSpaceOnUse">
<stop stop-color="#D4AF37"/>
<stop offset="1" stop-color="#FFDA63"/>
</linearGradient>
</defs>
</svg>
