<svg width="20" height="13" viewBox="0 0 20 13" fill="none" xmlns="http://www.w3.org/2000/svg">
<g clip-path="url(#clip0_144_11440)">
<rect width="20" height="13" rx="1" fill="white"/>
<path d="M19.6551 13H0.344843C0.253388 13 0.165682 12.9639 0.101014 12.8998C0.0363453 12.8356 1.03579e-05 12.7486 0 12.6579L0 0.34212C1.03579e-05 0.251388 0.0363453 0.164374 0.101014 0.100216C0.165682 0.0360583 0.253388 1.02761e-05 0.344843 0H19.6552C19.7466 1.02761e-05 19.8343 0.0360583 19.899 0.100216C19.9637 0.164374 20 0.251388 20 0.34212V12.6579C20 12.7486 19.9636 12.8356 19.899 12.8998C19.8343 12.9639 19.7466 13 19.6551 13Z" fill="#F5F5F5"/>
<path d="M20 1.00005H0V0.34212C1.03579e-05 0.251388 0.0363453 0.164374 0.101014 0.100216C0.165682 0.0360583 0.253388 1.02761e-05 0.344843 0H19.6552C19.7466 1.02761e-05 19.8343 0.0360583 19.899 0.100216C19.9637 0.164374 20 0.251388 20 0.34212L20 1.00005ZM0 4H20V5.00001H0V4ZM0 1.9999H20V2.99991H0V1.9999ZM20 7.00002H0.344843C0.253388 7.00001 0.165682 6.96397 0.101014 6.89981C0.0363453 6.83565 1.03579e-05 6.74864 0 6.6579L0 5.99998H20V7.00002ZM0 10.0003H20V11.0003H0V10.0003ZM19.6551 13H0.344843C0.253388 13 0.165682 12.9639 0.101014 12.8998C0.0363453 12.8356 1.03579e-05 12.7486 0 12.6579L0 12H20V12.6579C20 12.7486 19.9636 12.8357 19.8989 12.8998C19.8343 12.964 19.7466 13 19.6551 13ZM0 8.00019H20V9.0002H0V8.00019Z" fill="#FF4B55"/>
<path d="M8.96551 0H0.344844C0.253392 -5.82094e-10 0.165686 0.0360394 0.101016 0.100191C0.0363466 0.164343 1.03593e-05 0.251353 0 0.342082L0 6.65784C1.03579e-05 6.74857 0.0363453 6.83558 0.101014 6.89974C0.165682 6.9639 0.253389 6.99995 0.344844 6.99996H8.96555C9.057 6.99995 9.14471 6.9639 9.20938 6.89974C9.27404 6.83558 9.31038 6.74857 9.31039 6.65784V0.342082C9.31036 0.251352 9.27401 0.164349 9.20934 0.1002C9.14466 0.0360519 9.05696 1.02699e-05 8.96551 0Z" fill="#41479B"/>
<path d="M0.968217 0.785244L1.04455 1.01234L1.28583 1.01416C1.31708 1.01444 1.33001 1.05397 1.3049 1.07237L1.1108 1.2146L1.18361 1.44282C1.19306 1.47235 1.15912 1.49685 1.13369 1.47879L0.937397 1.33962L0.741108 1.47883C0.715678 1.49685 0.681811 1.47239 0.691186 1.44286L0.763998 1.21464L0.569897 1.07241C0.54478 1.05397 0.557709 1.01447 0.588959 1.0142L0.830248 1.01238L0.906577 0.785283C0.91642 0.75583 0.958295 0.75583 0.968217 0.785244ZM0.968217 1.97321L1.04455 2.20031L1.28583 2.20213C1.31708 2.2024 1.33001 2.24193 1.3049 2.26034L1.1108 2.40257L1.18361 2.63079C1.19306 2.66032 1.15912 2.68482 1.13369 2.66676L0.937397 2.52759L0.741108 2.66679C0.715678 2.68482 0.681811 2.66036 0.691186 2.63083L0.763998 2.40261L0.569897 2.26038C0.54478 2.24193 0.557709 2.20244 0.588959 2.20217L0.830248 2.20035L0.906577 1.97325C0.91642 1.94384 0.958295 1.94384 0.968217 1.97321ZM0.968217 3.16118L1.04455 3.38828L1.28583 3.3901C1.31708 3.39037 1.33001 3.4299 1.3049 3.44831L1.1108 3.59054L1.18361 3.81876C1.19306 3.84829 1.15912 3.87278 1.13369 3.85472L0.937397 3.71556L0.741108 3.85476C0.715678 3.87278 0.681811 3.84833 0.691186 3.8188L0.763998 3.59058L0.569897 3.44835C0.54478 3.4299 0.557709 3.39041 0.588959 3.39014L0.830248 3.38832L0.906577 3.16122C0.91642 3.13181 0.958295 3.1318 0.968217 3.16118ZM0.968217 4.34919L1.04455 4.57629L1.28583 4.57811C1.31708 4.57838 1.33001 4.61791 1.3049 4.63632L1.1108 4.77854L1.18361 5.00677C1.19306 5.0363 1.15912 5.06079 1.13369 5.04273L0.937397 4.90357L0.741108 5.04277C0.715678 5.06079 0.681811 5.03634 0.691186 5.00681L0.763998 4.77858L0.569897 4.63636C0.54478 4.61791 0.557709 4.57842 0.588959 4.57815L0.830248 4.57633L0.906577 4.34923C0.91642 4.31977 0.958295 4.31977 0.968217 4.34919ZM0.968217 5.53716L1.04455 5.76426L1.28583 5.76608C1.31708 5.76635 1.33001 5.80588 1.3049 5.82429L1.1108 5.96651L1.18361 6.19474C1.19306 6.22427 1.15912 6.24876 1.13369 6.2307L0.937397 6.09153L0.741108 6.23074C0.715678 6.24876 0.681811 6.2243 0.691186 6.19477L0.763998 5.96655L0.569897 5.82432C0.54478 5.80588 0.557709 5.76639 0.588959 5.76612L0.830248 5.76429L0.906577 5.5372C0.91642 5.5077 0.958295 5.5077 0.968217 5.53716ZM1.89763 1.36768L1.97396 1.59478L2.21525 1.5966C2.2465 1.59687 2.25943 1.6364 2.23431 1.65481L2.04021 1.79704L2.11302 2.02526C2.12248 2.05479 2.08853 2.07928 2.0631 2.06122L1.86681 1.92202L1.67052 2.06122C1.64509 2.07924 1.61123 2.05479 1.6206 2.02526L1.69341 1.79704L1.49931 1.65481C1.47419 1.63636 1.48712 1.59687 1.51837 1.5966L1.75966 1.59478L1.83599 1.36768C1.8458 1.3383 1.88775 1.3383 1.89763 1.36768ZM1.89763 2.55569L1.97396 2.78279L2.21525 2.78461C2.2465 2.78488 2.25943 2.82441 2.23431 2.84282L2.04021 2.98504L2.11302 3.21327C2.12248 3.2428 2.08853 3.26729 2.0631 3.24923L1.86681 3.11003L1.67052 3.24923C1.64509 3.26725 1.61123 3.24284 1.6206 3.21327L1.69341 2.98504L1.49931 2.84282C1.47419 2.82437 1.48712 2.78488 1.51837 2.78461L1.75966 2.78279L1.83599 2.55569C1.8458 2.52627 1.88775 2.52627 1.89763 2.55569ZM1.89763 3.74366L1.97396 3.97075L2.21525 3.97258C2.2465 3.97285 2.25943 4.01238 2.23431 4.03078L2.04021 4.17301L2.11302 4.40123C2.12248 4.43076 2.08853 4.45526 2.0631 4.4372L1.86681 4.29799L1.67052 4.4372C1.64509 4.45522 1.61123 4.43076 1.6206 4.40123L1.69341 4.17301L1.49931 4.03078C1.47419 4.01234 1.48712 3.97285 1.51837 3.97258L1.75966 3.97075L1.83599 3.74366C1.8458 3.71424 1.88775 3.71424 1.89763 3.74366ZM1.89763 4.93162L1.97396 5.15872L2.21525 5.16054C2.2465 5.16081 2.25943 5.20034 2.23431 5.21875L2.04021 5.36098L2.11302 5.5892C2.12248 5.61873 2.08853 5.64323 2.0631 5.62517L1.86681 5.48596L1.67052 5.62517C1.64509 5.64319 1.61123 5.61873 1.6206 5.5892L1.69341 5.36098L1.49931 5.21875C1.47419 5.20031 1.48712 5.16081 1.51837 5.16054L1.75966 5.15872L1.83599 4.93162C1.8458 4.90225 1.88775 4.90225 1.89763 4.93162ZM2.82705 0.785244L2.90337 1.01234L3.14466 1.01416C3.17591 1.01444 3.18884 1.05397 3.16373 1.07237L2.96962 1.2146L3.04244 1.44282C3.05189 1.47235 3.01794 1.49685 2.99251 1.47879L2.79623 1.33958L2.59994 1.47879C2.57451 1.49681 2.54064 1.47235 2.55001 1.44282L2.62283 1.2146L2.42873 1.07237C2.40361 1.05393 2.41654 1.01444 2.44779 1.01416L2.68908 1.01234L2.7654 0.785244C2.77525 0.75583 2.81716 0.75583 2.82705 0.785244ZM2.82705 1.97321L2.90337 2.20031L3.14466 2.20213C3.17591 2.2024 3.18884 2.24193 3.16373 2.26034L2.96962 2.40257L3.04244 2.63079C3.05189 2.66032 3.01794 2.68482 2.99251 2.66676L2.79623 2.52755L2.59994 2.66676C2.57451 2.68478 2.54064 2.66032 2.55001 2.63079L2.62283 2.40257L2.42873 2.26034C2.40361 2.24189 2.41654 2.2024 2.44779 2.20213L2.68908 2.20031L2.7654 1.97321C2.77525 1.94384 2.81716 1.94384 2.82705 1.97321ZM2.82705 3.16118L2.90337 3.38828L3.14466 3.3901C3.17591 3.39037 3.18884 3.4299 3.16373 3.44831L2.96962 3.59054L3.04244 3.81876C3.05189 3.84829 3.01794 3.87278 2.99251 3.85472L2.79623 3.71552L2.59994 3.85472C2.57451 3.87275 2.54064 3.84829 2.55001 3.81876L2.62283 3.59054L2.42873 3.44831C2.40361 3.42986 2.41654 3.39037 2.44779 3.3901L2.68908 3.38828L2.7654 3.16118C2.77525 3.1318 2.81716 3.1318 2.82705 3.16118ZM2.82705 4.34919L2.90337 4.57629L3.14466 4.57811C3.17591 4.57838 3.18884 4.61791 3.16373 4.63632L2.96962 4.77854L3.04244 5.00677C3.05189 5.0363 3.01794 5.06079 2.99251 5.04273L2.79623 4.90353L2.59994 5.04273C2.57451 5.06075 2.54064 5.0363 2.55001 5.00677L2.62283 4.77854L2.42873 4.63632C2.40361 4.61787 2.41654 4.57838 2.44779 4.57811L2.68908 4.57629L2.7654 4.34919C2.77525 4.31977 2.81716 4.31977 2.82705 4.34919ZM2.82705 5.53716L2.90337 5.76426L3.14466 5.76608C3.17591 5.76635 3.18884 5.80588 3.16373 5.82429L2.96962 5.96651L3.04244 6.19474C3.05189 6.22427 3.01794 6.24876 2.99251 6.2307L2.79623 6.09149L2.59994 6.2307C2.57451 6.24872 2.54064 6.22427 2.55001 6.19474L2.62283 5.96651L2.42873 5.82429C2.40361 5.80584 2.41654 5.76635 2.44779 5.76608L2.68908 5.76426L2.7654 5.53716C2.77525 5.5077 2.81716 5.5077 2.82705 5.53716ZM3.7565 1.36768L3.83283 1.59478L4.07412 1.5966C4.10537 1.59687 4.1183 1.6364 4.09318 1.65481L3.89908 1.79704L3.97189 2.02526C3.98134 2.05479 3.9474 2.07928 3.92197 2.06122L3.72568 1.92202L3.52939 2.06122C3.50396 2.07924 3.47009 2.05479 3.47947 2.02526L3.55228 1.79704L3.35818 1.65481C3.33306 1.63636 3.34599 1.59687 3.37724 1.5966L3.61853 1.59478L3.69486 1.36768C3.70466 1.3383 3.74662 1.3383 3.7565 1.36768ZM3.7565 2.55569L3.83283 2.78279L4.07412 2.78461C4.10537 2.78488 4.1183 2.82441 4.09318 2.84282L3.89908 2.98504L3.97189 3.21327C3.98134 3.2428 3.9474 3.26729 3.92197 3.24923L3.72568 3.11003L3.52939 3.24923C3.50396 3.26725 3.47009 3.24284 3.47947 3.21327L3.55228 2.98504L3.35818 2.84282C3.33306 2.82437 3.34599 2.78488 3.37724 2.78461L3.61853 2.78279L3.69486 2.55569C3.70466 2.52627 3.74662 2.52627 3.7565 2.55569ZM3.7565 3.74366L3.83283 3.97075L4.07412 3.97258C4.10537 3.97285 4.1183 4.01238 4.09318 4.03078L3.89908 4.17301L3.97189 4.40123C3.98134 4.43076 3.9474 4.45526 3.92197 4.4372L3.72568 4.29799L3.52939 4.4372C3.50396 4.45522 3.47009 4.43076 3.47947 4.40123L3.55228 4.17301L3.35818 4.03078C3.33306 4.01234 3.34599 3.97285 3.37724 3.97258L3.61853 3.97075L3.69486 3.74366C3.70466 3.71424 3.74662 3.71424 3.7565 3.74366ZM3.7565 4.93162L3.83283 5.15872L4.07412 5.16054C4.10537 5.16081 4.1183 5.20034 4.09318 5.21875L3.89908 5.36098L3.97189 5.5892C3.98134 5.61873 3.9474 5.64323 3.92197 5.62517L3.72568 5.48596L3.52939 5.62517C3.50396 5.64319 3.47009 5.61873 3.47947 5.5892L3.55228 5.36098L3.35818 5.21875C3.33306 5.20031 3.34599 5.16081 3.37724 5.16054L3.61853 5.15872L3.69486 4.93162C3.70466 4.90225 3.74662 4.90225 3.7565 4.93162ZM4.68591 0.785244L4.76224 1.01234L5.00353 1.01416C5.03478 1.01444 5.04771 1.05397 5.02259 1.07237L4.82849 1.2146L4.9013 1.44282C4.91076 1.47235 4.87681 1.49685 4.85138 1.47879L4.65505 1.33958L4.45876 1.47879C4.43333 1.49681 4.39947 1.47235 4.40884 1.44282L4.48165 1.2146L4.28755 1.07237C4.26244 1.05393 4.27537 1.01444 4.30662 1.01416L4.5479 1.01234L4.62423 0.785244C4.63412 0.75583 4.67603 0.75583 4.68591 0.785244ZM4.68591 1.97321L4.76224 2.20031L5.00353 2.20213C5.03478 2.2024 5.04771 2.24193 5.02259 2.26034L4.82849 2.40257L4.9013 2.63079C4.91076 2.66032 4.87681 2.68482 4.85138 2.66676L4.65505 2.52755L4.45876 2.66676C4.43333 2.68478 4.39947 2.66032 4.40884 2.63079L4.48165 2.40257L4.28755 2.26034C4.26244 2.24189 4.27537 2.2024 4.30662 2.20213L4.5479 2.20031L4.62423 1.97321C4.63412 1.94384 4.67603 1.94384 4.68591 1.97321ZM4.68591 3.16118L4.76224 3.38828L5.00353 3.3901C5.03478 3.39037 5.04771 3.4299 5.02259 3.44831L4.82849 3.59054L4.9013 3.81876C4.91076 3.84829 4.87681 3.87278 4.85138 3.85472L4.65505 3.71552L4.45876 3.85472C4.43333 3.87275 4.39947 3.84829 4.40884 3.81876L4.48165 3.59054L4.28755 3.44831C4.26244 3.42986 4.27537 3.39037 4.30662 3.3901L4.5479 3.38828L4.62423 3.16118C4.63412 3.1318 4.67603 3.1318 4.68591 3.16118ZM4.68591 4.34919L4.76224 4.57629L5.00353 4.57811C5.03478 4.57838 5.04771 4.61791 5.02259 4.63632L4.82849 4.77854L4.9013 5.00677C4.91076 5.0363 4.87681 5.06079 4.85138 5.04273L4.65505 4.90353L4.45876 5.04273C4.43333 5.06075 4.39947 5.0363 4.40884 5.00677L4.48165 4.77854L4.28755 4.63632C4.26244 4.61787 4.27537 4.57838 4.30662 4.57811L4.5479 4.57629L4.62423 4.34919C4.63412 4.31977 4.67603 4.31977 4.68591 4.34919ZM4.68591 5.53716L4.76224 5.76426L5.00353 5.76608C5.03478 5.76635 5.04771 5.80588 5.02259 5.82429L4.82849 5.96651L4.9013 6.19474C4.91076 6.22427 4.87681 6.24876 4.85138 6.2307L4.65505 6.09149L4.45876 6.2307C4.43333 6.24872 4.39947 6.22427 4.40884 6.19474L4.48165 5.96651L4.28755 5.82429C4.26244 5.80584 4.27537 5.76635 4.30662 5.76608L4.5479 5.76426L4.62423 5.53716C4.63412 5.5077 4.67603 5.5077 4.68591 5.53716ZM5.61533 1.36768L5.69165 1.59478L5.93294 1.5966C5.96419 1.59687 5.97712 1.6364 5.95201 1.65481L5.7579 1.79704L5.83072 2.02526C5.84017 2.05479 5.80622 2.07928 5.7808 2.06122L5.58451 1.92202L5.38822 2.06122C5.36279 2.07924 5.32892 2.05479 5.33829 2.02526L5.41111 1.79704L5.21701 1.65481C5.19189 1.63636 5.20482 1.59687 5.23607 1.5966L5.47736 1.59478L5.55369 1.36768C5.56357 1.3383 5.60544 1.3383 5.61533 1.36768ZM5.61533 2.55569L5.69165 2.78279L5.93294 2.78461C5.96419 2.78488 5.97712 2.82441 5.95201 2.84282L5.7579 2.98504L5.83072 3.21327C5.84017 3.2428 5.80622 3.26729 5.7808 3.24923L5.58451 3.11003L5.38822 3.24923C5.36279 3.26725 5.32892 3.24284 5.33829 3.21327L5.41111 2.98504L5.21701 2.84282C5.19189 2.82437 5.20482 2.78488 5.23607 2.78461L5.47736 2.78279L5.55369 2.55569C5.56357 2.52627 5.60544 2.52627 5.61533 2.55569ZM5.61533 3.74366L5.69165 3.97075L5.93294 3.97258C5.96419 3.97285 5.97712 4.01238 5.95201 4.03078L5.7579 4.17301L5.83072 4.40123C5.84017 4.43076 5.80622 4.45526 5.7808 4.4372L5.58451 4.29799L5.38822 4.4372C5.36279 4.45522 5.32892 4.43076 5.33829 4.40123L5.41111 4.17301L5.21701 4.03078C5.19189 4.01234 5.20482 3.97285 5.23607 3.97258L5.47736 3.97075L5.55369 3.74366C5.56357 3.71424 5.60544 3.71424 5.61533 3.74366ZM5.61533 4.93162L5.69165 5.15872L5.93294 5.16054C5.96419 5.16081 5.97712 5.20034 5.95201 5.21875L5.7579 5.36098L5.83072 5.5892C5.84017 5.61873 5.80622 5.64323 5.7808 5.62517L5.58451 5.48596L5.38822 5.62517C5.36279 5.64319 5.32892 5.61873 5.33829 5.5892L5.41111 5.36098L5.21701 5.21875C5.19189 5.20031 5.20482 5.16081 5.23607 5.16054L5.47736 5.15872L5.55369 4.93162C5.56357 4.90225 5.60544 4.90225 5.61533 4.93162ZM6.54478 0.785244L6.62111 1.01234L6.8624 1.01416C6.89365 1.01444 6.90658 1.05397 6.88146 1.07237L6.68736 1.2146L6.76017 1.44282C6.76962 1.47235 6.73568 1.49685 6.71025 1.47879L6.51396 1.33958L6.31767 1.47879C6.29224 1.49681 6.25837 1.47235 6.26775 1.44282L6.34056 1.2146L6.14646 1.07237C6.12134 1.05393 6.13427 1.01444 6.16552 1.01416L6.40681 1.01234L6.48314 0.785244C6.49294 0.75583 6.5349 0.75583 6.54478 0.785244ZM6.54478 1.97321L6.62111 2.20031L6.8624 2.20213C6.89365 2.2024 6.90658 2.24193 6.88146 2.26034L6.68736 2.40257L6.76017 2.63079C6.76962 2.66032 6.73568 2.68482 6.71025 2.66676L6.51396 2.52755L6.31767 2.66676C6.29224 2.68478 6.25837 2.66032 6.26775 2.63079L6.34056 2.40257L6.14646 2.26034C6.12134 2.24189 6.13427 2.2024 6.16552 2.20213L6.40681 2.20031L6.48314 1.97321C6.49294 1.94384 6.5349 1.94384 6.54478 1.97321ZM6.54478 3.16118L6.62111 3.38828L6.8624 3.3901C6.89365 3.39037 6.90658 3.4299 6.88146 3.44831L6.68736 3.59054L6.76017 3.81876C6.76962 3.84829 6.73568 3.87278 6.71025 3.85472L6.51396 3.71552L6.31767 3.85472C6.29224 3.87275 6.25837 3.84829 6.26775 3.81876L6.34056 3.59054L6.14646 3.44831C6.12134 3.42986 6.13427 3.39037 6.16552 3.3901L6.40681 3.38828L6.48314 3.16118C6.49294 3.1318 6.5349 3.1318 6.54478 3.16118ZM6.54478 4.34919L6.62111 4.57629L6.8624 4.57811C6.89365 4.57838 6.90658 4.61791 6.88146 4.63632L6.68736 4.77854L6.76017 5.00677C6.76962 5.0363 6.73568 5.06079 6.71025 5.04273L6.51396 4.90353L6.31767 5.04273C6.29224 5.06075 6.25837 5.0363 6.26775 5.00677L6.34056 4.77854L6.14646 4.63632C6.12134 4.61787 6.13427 4.57838 6.16552 4.57811L6.40681 4.57629L6.48314 4.34919C6.49294 4.31977 6.5349 4.31977 6.54478 4.34919ZM6.54478 5.53716L6.62111 5.76426L6.8624 5.76608C6.89365 5.76635 6.90658 5.80588 6.88146 5.82429L6.68736 5.96651L6.76017 6.19474C6.76962 6.22427 6.73568 6.24876 6.71025 6.2307L6.51396 6.09149L6.31767 6.2307C6.29224 6.24872 6.25837 6.22427 6.26775 6.19474L6.34056 5.96651L6.14646 5.82429C6.12134 5.80584 6.13427 5.76635 6.16552 5.76608L6.40681 5.76426L6.48314 5.53716C6.49294 5.5077 6.5349 5.5077 6.54478 5.53716ZM7.47419 1.36768L7.55052 1.59478L7.79181 1.5966C7.82306 1.59687 7.83599 1.6364 7.81087 1.65481L7.61677 1.79704L7.68958 2.02526C7.69904 2.05479 7.66509 2.07928 7.63966 2.06122L7.44337 1.92202L7.24708 2.06122C7.22165 2.07924 7.18779 2.05479 7.19716 2.02526L7.26997 1.79704L7.07587 1.65481C7.05076 1.63636 7.06369 1.59687 7.09494 1.5966L7.33623 1.59478L7.41255 1.36768C7.4224 1.3383 7.46435 1.3383 7.47419 1.36768ZM7.47419 2.55569L7.55052 2.78279L7.79181 2.78461C7.82306 2.78488 7.83599 2.82441 7.81087 2.84282L7.61677 2.98504L7.68958 3.21327C7.69904 3.2428 7.66509 3.26729 7.63966 3.24923L7.44337 3.11003L7.24708 3.24923C7.22165 3.26725 7.18779 3.24284 7.19716 3.21327L7.26997 2.98504L7.07587 2.84282C7.05076 2.82437 7.06369 2.78488 7.09494 2.78461L7.33623 2.78279L7.41255 2.55569C7.4224 2.52627 7.46435 2.52627 7.47419 2.55569ZM7.47419 3.74366L7.55052 3.97075L7.79181 3.97258C7.82306 3.97285 7.83599 4.01238 7.81087 4.03078L7.61677 4.17301L7.68958 4.40123C7.69904 4.43076 7.66509 4.45526 7.63966 4.4372L7.44337 4.29799L7.24708 4.4372C7.22165 4.45522 7.18779 4.43076 7.19716 4.40123L7.26997 4.17301L7.07587 4.03078C7.05076 4.01234 7.06369 3.97285 7.09494 3.97258L7.33623 3.97075L7.41255 3.74366C7.4224 3.71424 7.46435 3.71424 7.47419 3.74366ZM7.47419 4.93162L7.55052 5.15872L7.79181 5.16054C7.82306 5.16081 7.83599 5.20034 7.81087 5.21875L7.61677 5.36098L7.68958 5.5892C7.69904 5.61873 7.66509 5.64323 7.63966 5.62517L7.44337 5.48596L7.24708 5.62517C7.22165 5.64319 7.18779 5.61873 7.19716 5.5892L7.26997 5.36098L7.07587 5.21875C7.05076 5.20031 7.06369 5.16081 7.09494 5.16054L7.33623 5.15872L7.41255 4.93162C7.4224 4.90225 7.46435 4.90225 7.47419 4.93162ZM8.40365 0.785244L8.47997 1.01234L8.72126 1.01416C8.75251 1.01444 8.76544 1.05397 8.74033 1.07237L8.54622 1.2146L8.61904 1.44282C8.62849 1.47235 8.59455 1.49685 8.56912 1.47879L8.37283 1.33958L8.17654 1.47879C8.15111 1.49681 8.11724 1.47235 8.12662 1.44282L8.19943 1.2146L8.00533 1.07237C7.98021 1.05393 7.99314 1.01444 8.02439 1.01416L8.26568 1.01234L8.34201 0.785244C8.35185 0.75583 8.39372 0.75583 8.40365 0.785244ZM8.40365 1.97321L8.47997 2.20031L8.72126 2.20213C8.75251 2.2024 8.76544 2.24193 8.74033 2.26034L8.54622 2.40257L8.61904 2.63079C8.62849 2.66032 8.59455 2.68482 8.56912 2.66676L8.37283 2.52755L8.17654 2.66676C8.15111 2.68478 8.11724 2.66032 8.12662 2.63079L8.19943 2.40257L8.00533 2.26034C7.98021 2.24189 7.99314 2.2024 8.02439 2.20213L8.26568 2.20031L8.34201 1.97321C8.35185 1.94384 8.39372 1.94384 8.40365 1.97321ZM8.40365 3.16118L8.47997 3.38828L8.72126 3.3901C8.75251 3.39037 8.76544 3.4299 8.74033 3.44831L8.54622 3.59054L8.61904 3.81876C8.62849 3.84829 8.59455 3.87278 8.56912 3.85472L8.37283 3.71552L8.17654 3.85472C8.15111 3.87275 8.11724 3.84829 8.12662 3.81876L8.19943 3.59054L8.00533 3.44831C7.98021 3.42986 7.99314 3.39037 8.02439 3.3901L8.26568 3.38828L8.34201 3.16118C8.35185 3.1318 8.39372 3.1318 8.40365 3.16118ZM8.40365 4.34919L8.47997 4.57629L8.72126 4.57811C8.75251 4.57838 8.76544 4.61791 8.74033 4.63632L8.54622 4.77854L8.61904 5.00677C8.62849 5.0363 8.59455 5.06079 8.56912 5.04273L8.37283 4.90353L8.17654 5.04273C8.15111 5.06075 8.11724 5.0363 8.12662 5.00677L8.19943 4.77854L8.00533 4.63632C7.98021 4.61787 7.99314 4.57838 8.02439 4.57811L8.26568 4.57629L8.34201 4.34919C8.35185 4.31977 8.39372 4.31977 8.40365 4.34919ZM8.40365 5.53716L8.47997 5.76426L8.72126 5.76608C8.75251 5.76635 8.76544 5.80588 8.74033 5.82429L8.54622 5.96651L8.61904 6.19474C8.62849 6.22427 8.59455 6.24876 8.56912 6.2307L8.37283 6.09149L8.17654 6.2307C8.15111 6.24872 8.11724 6.22427 8.12662 6.19474L8.19943 5.96651L8.00533 5.82429C7.98021 5.80584 7.99314 5.76635 8.02439 5.76608L8.26568 5.76426L8.34201 5.53716C8.35185 5.5077 8.39372 5.5077 8.40365 5.53716Z" fill="#F5F5F5"/>
</g>
<defs>
<clipPath id="clip0_144_11440">
<rect width="20" height="13" rx="1" fill="white"/>
</clipPath>
</defs>
</svg>
